<svg xmlns="http://www.w3.org/2000/svg" width="36" height="36" viewBox="0 0 36 36">
  <g id="Group_69" data-name="Group 69" transform="translate(-162.96 -60)">
    <path id="Subtraction_1" data-name="Subtraction 1" d="M-905.165-1225a10.136,10.136,0,0,1-10.125-10.125,10.136,10.136,0,0,1,10.125-10.125,10.136,10.136,0,0,1,10.125,10.125A10.136,10.136,0,0,1-905.165-1225Zm.126-11a1,1,0,0,0-1,1v4a1,1,0,0,0,1,1,1,1,0,0,0,1-1v-4A1,1,0,0,0-905.039-1236Zm0-3.927a1.329,1.329,0,0,0-1.328,1.328,1.329,1.329,0,0,0,1.328,1.327,1.328,1.328,0,0,0,1.327-1.327A1.329,1.329,0,0,0-905.039-1239.927ZM-916.19-1229.5h-8.662a6.194,6.194,0,0,1-6.187-6.187v-19.125a6.194,6.194,0,0,1,6.188-6.187h19.125a6.194,6.194,0,0,1,6.188,6.188v8.662a12.336,12.336,0,0,0-2.25-.885v-7.778a3.942,3.942,0,0,0-3.937-3.937h-19.125a3.942,3.942,0,0,0-3.937,3.938v19.125a3.942,3.942,0,0,0,3.938,3.938h7.779a12.246,12.246,0,0,0,.883,2.249Zm-6.412-6.75a1.689,1.689,0,0,1-1.687-1.687,1.689,1.689,0,0,1,1.688-1.687,1.689,1.689,0,0,1,1.688,1.688A1.689,1.689,0,0,1-922.6-1236.25Zm7.891-6.75h-1.7a1.126,1.126,0,0,1-1.125-1.125,1.126,1.126,0,0,1,1.125-1.125h4.134a12.368,12.368,0,0,0-2.43,2.25Zm-7.891,0a1.689,1.689,0,0,1-1.687-1.687,1.689,1.689,0,0,1,1.688-1.687,1.689,1.689,0,0,1,1.688,1.688A1.689,1.689,0,0,1-922.6-1243Zm15.188-6.75h-9a1.126,1.126,0,0,1-1.125-1.125,1.126,1.126,0,0,1,1.125-1.125h9a1.126,1.126,0,0,1,1.125,1.125A1.126,1.126,0,0,1-907.415-1249.75Zm-15.187,0a1.689,1.689,0,0,1-1.687-1.687,1.689,1.689,0,0,1,1.688-1.687,1.689,1.689,0,0,1,1.688,1.688A1.689,1.689,0,0,1-922.6-1249.75Z" transform="translate(1094 1321)" fill="#fff"/>
  </g>
</svg>
